<?xml version="1.0" encoding="utf-8"?>
<!-- Generator: Adobe Illustrator 16.0.3, SVG Export Plug-In . SVG Version: 6.00 Build 0)  -->
<!DOCTYPE svg PUBLIC "-//W3C//DTD SVG 1.1//EN" "http://www.w3.org/Graphics/SVG/1.1/DTD/svg11.dtd">
<svg version="1.1" id="Ebene_1" xmlns="http://www.w3.org/2000/svg" xmlns:xlink="http://www.w3.org/1999/xlink" x="0px" y="0px"
	 width="512.84px" height="87.946px" viewBox="0 0 512.84 87.946" enable-background="new 0 0 512.84 87.946" xml:space="preserve">
<g>
	<rect fill="#FCE531" width="354.925" height="87.946"/>
	<rect x="354.925" fill="#1B66B3" width="157.915" height="87.946"/>
</g>
<g>
	<g>
		<path fill="#1B66B3" d="M20.389,17.948h53.205v12.197H40.157v6.729h31.054v12.197H40.157v6.729h33.438v12.197H20.389V17.948z"/>
		<path fill="#1B66B3" d="M80.113,17.948h38.484c16.964,0,25.937,6.589,25.937,25.025c0,17.595-8.903,25.025-25.516,25.025H80.113
			V17.948z M99.881,55.38h11.356c9.042,0,12.688-4.486,12.688-12.407s-3.645-12.407-12.688-12.407H99.881V55.38z"/>
		<path fill="#1B66B3" d="M151.544,17.948h53.205v12.197h-33.438v6.729h31.054v12.197h-31.054v6.729h33.438v12.197h-53.205V17.948z"
			/>
		<path fill="#1B66B3" d="M237.555,48.792l-6.52,5.748v13.459h-19.768V17.948h19.768v17.665l18.366-17.665h26.217l-22.362,19.348
			l24.254,30.703h-26.288L237.555,48.792z"/>
		<path fill="#1B66B3" d="M294.195,17.948h24.254l21.311,50.051h-21.03l-2.103-5.748h-20.609l-2.103,5.748h-21.03L294.195,17.948z
			 M306.393,33.089h-0.141l-5.889,16.964h11.917L306.393,33.089z"/>
	</g>
	<g>
		<path fill="#FFFFFF" d="M407.642,37.996c2.453-0.49,3.785-1.752,3.785-3.785c0-2.804-3.435-3.926-7.991-3.926
			c-5.327,0-10.725,0.491-11.286,6.8H371.12c1.472-16.753,17.524-18.996,29.933-18.996c15.982,0,30.983,2.804,30.983,16.402
			c0,9.253-9.533,12.969-16.544,14.301l-17.595,3.294c-4.205,0.771-6.448,1.894-7.641,3.716h40.728v12.197h-61.547
			c0.351-18.717,12.197-24.395,23.834-26.918L407.642,37.996z"/>
		<path fill="#FFFFFF" d="M437.784,48.3l28.109-28.95h25.166v29.441h9.042v11.776h-9.042v7.431h-17.525v-7.431h-35.75V48.3z
			 M473.534,31.126l-17.805,17.665h17.805V31.126z"/>
	</g>
</g>
</svg>
